<svg width="26" height="25" viewBox="0 0 26 25" fill="none" xmlns="http://www.w3.org/2000/svg">
<path d="M5.96875 4.6875C4.93275 4.6875 3.93918 5.09905 3.20661 5.83161C2.47405 6.56418 2.0625 7.55775 2.0625 8.59375V9.375H23.9375V8.59375C23.9375 7.55775 23.5259 6.56418 22.7934 5.83161C22.0608 5.09905 21.0673 4.6875 20.0312 4.6875H5.96875ZM23.9375 10.9375H2.0625V16.4062C2.0625 17.4423 2.47405 18.4358 3.20661 19.1684C3.93918 19.9009 4.93275 20.3125 5.96875 20.3125H20.0312C21.0673 20.3125 22.0608 19.9009 22.7934 19.1684C23.5259 18.4358 23.9375 17.4423 23.9375 16.4062V10.9375ZM16.9062 15.625H20.0312C20.2385 15.625 20.4372 15.7073 20.5837 15.8538C20.7302 16.0003 20.8125 16.199 20.8125 16.4062C20.8125 16.6135 20.7302 16.8122 20.5837 16.9587C20.4372 17.1052 20.2385 17.1875 20.0312 17.1875H16.9062C16.699 17.1875 16.5003 17.1052 16.3538 16.9587C16.2073 16.8122 16.125 16.6135 16.125 16.4062C16.125 16.199 16.2073 16.0003 16.3538 15.8538C16.5003 15.7073 16.699 15.625 16.9062 15.625Z" fill="white" fill-opacity="0.7"/>
</svg>
