<svg width="24" height="25" viewBox="0 0 24 25" fill="none" xmlns="http://www.w3.org/2000/svg">
<mask id="path-1-inside-1_1412_1077" fill="white">
<path d="M12 4.5H20V10.5H12V4.5ZM12 21.5V11.5H20V21.5H12ZM3 21.5V15.5H11V21.5H3ZM3 14.5V4.5H11V14.5H3ZM4 5.5V13.5H10V5.5H4ZM13 5.5V9.5H19V5.5H13ZM13 12.5V20.5H19V12.5H13ZM4 16.5V20.5H10V16.5H4Z"/>
</mask>
<path d="M12 4.5H20V10.5H12V4.5ZM12 21.5V11.5H20V21.5H12ZM3 21.5V15.5H11V21.5H3ZM3 14.5V4.5H11V14.5H3ZM4 5.5V13.5H10V5.5H4ZM13 5.5V9.5H19V5.5H13ZM13 12.5V20.5H19V12.5H13ZM4 16.5V20.5H10V16.5H4Z" fill="white"/>
<path d="M12 4.5V3.5H11V4.5H12ZM20 4.5H21V3.5H20V4.5ZM20 10.5V11.5H21V10.5H20ZM12 10.5H11V11.5H12V10.5ZM12 21.5H11V22.5H12V21.5ZM12 11.5V10.5H11V11.5H12ZM20 11.5H21V10.5H20V11.5ZM20 21.5V22.5H21V21.5H20ZM3 21.5H2V22.5H3V21.5ZM3 15.5V14.5H2V15.5H3ZM11 15.5H12V14.5H11V15.5ZM11 21.5V22.5H12V21.5H11ZM3 14.5H2V15.5H3V14.5ZM3 4.5V3.5H2V4.5H3ZM11 4.5H12V3.5H11V4.5ZM11 14.5V15.5H12V14.5H11ZM4 5.5V4.5H3V5.5H4ZM4 13.5H3V14.5H4V13.5ZM10 13.5V14.5H11V13.5H10ZM10 5.5H11V4.5H10V5.5ZM13 5.5V4.5H12V5.5H13ZM13 9.5H12V10.5H13V9.5ZM19 9.5V10.5H20V9.5H19ZM19 5.5H20V4.5H19V5.5ZM13 12.5V11.5H12V12.5H13ZM13 20.5H12V21.5H13V20.5ZM19 20.5V21.5H20V20.5H19ZM19 12.5H20V11.5H19V12.5ZM4 16.5V15.5H3V16.5H4ZM4 20.5H3V21.5H4V20.5ZM10 20.5V21.5H11V20.5H10ZM10 16.5H11V15.5H10V16.5ZM12 5.5H20V3.5H12V5.5ZM19 4.5V10.5H21V4.5H19ZM20 9.5H12V11.5H20V9.5ZM13 10.5V4.5H11V10.5H13ZM13 21.5V11.5H11V21.5H13ZM12 12.5H20V10.5H12V12.5ZM19 11.5V21.5H21V11.5H19ZM20 20.5H12V22.5H20V20.5ZM4 21.5V15.5H2V21.5H4ZM3 16.5H11V14.5H3V16.5ZM10 15.5V21.5H12V15.5H10ZM11 20.5H3V22.5H11V20.5ZM4 14.5V4.5H2V14.5H4ZM3 5.5H11V3.5H3V5.5ZM10 4.5V14.5H12V4.5H10ZM11 13.5H3V15.5H11V13.5ZM3 5.5V13.5H5V5.5H3ZM4 14.5H10V12.5H4V14.5ZM11 13.5V5.5H9V13.5H11ZM10 4.5H4V6.5H10V4.5ZM12 5.5V9.5H14V5.5H12ZM13 10.5H19V8.5H13V10.5ZM20 9.5V5.5H18V9.5H20ZM19 4.5H13V6.5H19V4.5ZM12 12.5V20.5H14V12.5H12ZM13 21.5H19V19.5H13V21.5ZM20 20.5V12.5H18V20.5H20ZM19 11.5H13V13.5H19V11.5ZM3 16.5V20.5H5V16.5H3ZM4 21.5H10V19.5H4V21.5ZM11 20.5V16.5H9V20.5H11ZM10 15.5H4V17.5H10V15.5Z" fill="white" mask="url(#path-1-inside-1_1412_1077)"/>
</svg>
