<svg width="26" height="26" viewBox="0 0 26 26" fill="none" xmlns="http://www.w3.org/2000/svg">
<path d="M22.6925 12.5403V12.7701C22.6925 12.8468 22.6968 12.9234 22.7053 13V13.2299C22.7053 13.3065 22.701 13.3831 22.6925 13.4597L26 15.5157L23.9695 20.4067L20.1768 19.5383C19.9725 19.7597 19.7597 19.9725 19.5383 20.1768L20.4067 23.9695L15.5157 26L13.4597 22.6925H13.2299C13.1532 22.6925 13.0766 22.6968 13 22.7053H12.7701C12.6935 22.7053 12.6169 22.701 12.5403 22.6925L10.4843 26L5.59332 23.9695L6.46169 20.1768C6.24034 19.9725 6.0275 19.7597 5.82318 19.5383L2.03045 20.4067L0 15.5157L3.30747 13.4597V13.2299C3.30747 13.1532 3.30321 13.0766 3.2947 13V12.7701C3.2947 12.6935 3.29895 12.6169 3.30747 12.5403L0 10.4843L2.03045 5.59332L5.82318 6.46169C6.0275 6.24034 6.24034 6.0275 6.46169 5.82318L5.59332 2.03045L10.4843 0L12.5403 3.30747H12.7701C12.8468 3.30747 12.9234 3.30321 13 3.2947H13.2299C13.3065 3.2947 13.3831 3.29895 13.4597 3.30747L15.5157 0L20.4067 2.03045L19.5383 5.82318C19.7597 6.0275 19.9725 6.24034 20.1768 6.46169L23.9695 5.59332L26 10.4843L22.6925 12.5403ZM21.1984 14.2004C21.2155 13.9961 21.2325 13.796 21.2495 13.6002C21.2665 13.4044 21.275 13.2001 21.275 12.9872C21.275 12.7914 21.2665 12.5914 21.2495 12.387C21.2325 12.1827 21.2155 11.9826 21.1984 11.7868L24.2122 9.90963L23.1139 7.25344L19.6532 8.05796C19.3893 7.73445 19.1212 7.43648 18.8487 7.16405C18.5763 6.89162 18.2741 6.61919 17.942 6.34676L18.7466 2.88605L16.0904 1.78782L14.2004 4.80157C14.0046 4.78454 13.8045 4.76752 13.6002 4.75049C13.3959 4.73346 13.1958 4.72495 13 4.72495C12.7957 4.72495 12.5956 4.73346 12.3998 4.75049C12.204 4.76752 11.9997 4.78454 11.7868 4.80157L9.90963 1.78782L7.25344 2.88605L8.05796 6.34676C7.73445 6.61067 7.43648 6.87885 7.16405 7.15128C6.89162 7.42371 6.61919 7.72593 6.34676 8.05796L2.88605 7.25344L1.78782 9.90963L4.80157 11.7996C4.78454 12.0039 4.76752 12.204 4.75049 12.3998C4.73346 12.5956 4.72495 12.7999 4.72495 13.0128C4.72495 13.2086 4.73346 13.4086 4.75049 13.613C4.76752 13.8173 4.78454 14.0174 4.80157 14.2132L1.78782 16.0904L2.88605 18.7466L6.34676 17.942C6.61067 18.2656 6.87885 18.5635 7.15128 18.836C7.42371 19.1084 7.72593 19.3808 8.05796 19.6532L7.25344 23.1139L9.90963 24.2122L11.7996 21.1984C11.9954 21.2155 12.1955 21.2325 12.3998 21.2495C12.6041 21.2665 12.8042 21.275 13 21.275C13.2043 21.275 13.4044 21.2665 13.6002 21.2495C13.796 21.2325 14.0003 21.2155 14.2132 21.1984L16.0904 24.2122L18.7466 23.1139L17.942 19.6532C18.2656 19.3893 18.5635 19.1212 18.836 18.8487C19.1084 18.5763 19.3808 18.2741 19.6532 17.942L23.1139 18.7466L24.2122 16.0904L21.1984 14.2004ZM13 8.19843C13.664 8.19843 14.2855 8.32187 14.8644 8.56876C15.4434 8.81565 15.9542 9.16045 16.3969 9.60314C16.8396 10.0458 17.1801 10.5524 17.4185 11.1228C17.6568 11.6932 17.7845 12.3189 17.8016 13C17.8016 13.664 17.6781 14.2855 17.4312 14.8644C17.1843 15.4434 16.8396 15.9542 16.3969 16.3969C15.9542 16.8396 15.4476 17.1801 14.8772 17.4185C14.3068 17.6568 13.6811 17.7845 13 17.8016C12.336 17.8016 11.7145 17.6781 11.1356 17.4312C10.5566 17.1843 10.0458 16.8396 9.60314 16.3969C9.16045 15.9542 8.81991 15.4476 8.58153 14.8772C8.34316 14.3068 8.21546 13.6811 8.19843 13C8.19843 12.336 8.32187 11.7145 8.56876 11.1356C8.81565 10.5566 9.16045 10.0458 9.60314 9.60314C10.0458 9.16045 10.5524 8.81991 11.1228 8.58153C11.6932 8.34316 12.3189 8.21546 13 8.19843ZM13 16.3713C13.4682 16.3713 13.9067 16.2862 14.3153 16.1159C14.724 15.9456 15.0815 15.703 15.388 15.388C15.6945 15.073 15.9329 14.7155 16.1031 14.3153C16.2734 13.9152 16.3628 13.4768 16.3713 13C16.3713 12.5318 16.2862 12.0933 16.1159 11.6847C15.9456 11.276 15.703 10.9185 15.388 10.612C15.073 10.3055 14.7155 10.0671 14.3153 9.89686C13.9152 9.72659 13.4768 9.6372 13 9.62868C12.5318 9.62868 12.0933 9.71382 11.6847 9.88409C11.276 10.0544 10.9185 10.297 10.612 10.612C10.3055 10.927 10.0671 11.2845 9.89686 11.6847C9.72659 12.0848 9.6372 12.5232 9.62868 13C9.62868 13.4682 9.71382 13.9067 9.88409 14.3153C10.0544 14.724 10.297 15.0815 10.612 15.388C10.927 15.6945 11.2845 15.9329 11.6847 16.1031C12.0848 16.2734 12.5232 16.3628 13 16.3713Z" fill="white" fill-opacity="0.7"/>
</svg>
