<svg width="29" height="29" viewBox="0 0 29 29" fill="none" xmlns="http://www.w3.org/2000/svg">
<path d="M4.04797 14.0469V9.7452C4.04797 9.42473 4.17528 9.11738 4.40189 8.89078C4.62849 8.66417 4.93584 8.53687 5.25631 8.53687H25.073C25.3934 8.53687 25.7008 8.66417 25.9274 8.89078C26.154 9.11738 26.2813 9.42473 26.2813 9.7452V23.641C26.2813 23.9615 26.154 24.2688 25.9274 24.4955C25.7008 24.7221 25.3934 24.8494 25.073 24.8494H5.25631C4.93584 24.8494 4.62849 24.7221 4.40189 24.4955C4.17528 24.2688 4.04797 23.9615 4.04797 23.641V19.3333" stroke="white" stroke-opacity="0.7" stroke-linecap="round" stroke-linejoin="round"/>
<path d="M3.32292 14.0469H10.2708C10.5913 14.0469 10.8987 14.1742 11.1253 14.4008C11.3519 14.6274 11.4792 14.9347 11.4792 15.2552V18.125C11.4792 18.4455 11.3519 18.7528 11.1253 18.9794C10.8987 19.206 10.5913 19.3333 10.2708 19.3333H3.32292C3.16268 19.3333 3.00901 19.2697 2.89571 19.1564C2.7824 19.0431 2.71875 18.8894 2.71875 18.7292V14.651C2.71875 14.4908 2.7824 14.3371 2.89571 14.2238C3.00901 14.1105 3.16268 14.0469 3.32292 14.0469Z" stroke="white" stroke-opacity="0.7" stroke-linecap="round" stroke-linejoin="round"/>
<path d="M8.75435 17.9014C9.4217 17.9014 9.96269 17.3604 9.96269 16.6931C9.96269 16.0257 9.4217 15.4847 8.75435 15.4847C8.08701 15.4847 7.54602 16.0257 7.54602 16.6931C7.54602 17.3604 8.08701 17.9014 8.75435 17.9014Z" stroke="white" stroke-opacity="0.7" stroke-linecap="round" stroke-linejoin="round"/>
<path d="M23.0309 8.53689L7.969 4.15063L6.69421 8.53689" stroke="white" stroke-opacity="0.7" stroke-linecap="round" stroke-linejoin="round"/>
</svg>
